<svg width="289" height="42" viewBox="0 0 289 42" fill="none" xmlns="http://www.w3.org/2000/svg">
<path d="M99.8867 14.375H104.574V16.4609H99.8867V21.1953H97.8008V16.4609H93.125V14.375H97.8008V9.59375H99.8867V14.375Z" fill="#1C3D3A"/>
<path d="M43.4628 0L55.7867 18.923L68.9176 0H70L41.5178 41.0292H40.4339L51.4246 25.2039L39.627 7.07138L26.483 25.996L14.1591 7.07138L1.084 25.9271H0L17.993 0L30.3188 18.923L43.4628 0Z" fill="#1C3D3A"/>
<path d="M3.71239 33.6576H2.99174L2.12696 32.209C2.04768 32.0746 1.97083 31.9599 1.89641 31.8649C1.82185 31.77 1.74567 31.6926 1.66761 31.6325C1.58954 31.5724 1.50541 31.5285 1.41535 31.5009C1.32528 31.4733 1.22376 31.4594 1.11091 31.4594H0.61367V33.6575H0.00830078V28.4902H1.55044C1.77628 28.4902 1.98472 28.5185 2.17564 28.575C2.36668 28.6314 2.53239 28.7174 2.67288 28.8326C2.81337 28.9478 2.92325 29.0914 3.00253 29.2632C3.0818 29.4348 3.12144 29.6361 3.12144 29.8668C3.12144 30.0469 3.09434 30.2122 3.04028 30.3623C2.98621 30.5124 2.90936 30.6462 2.80972 30.7639C2.70995 30.8816 2.58996 30.982 2.44947 31.0647C2.30898 31.1477 2.15096 31.212 1.97555 31.2575V31.272C2.06211 31.3104 2.13707 31.3542 2.20071 31.4036C2.26435 31.4528 2.32502 31.5112 2.38273 31.5783C2.44043 31.6456 2.49747 31.7219 2.55396 31.8071C2.61032 31.8924 2.67341 31.9914 2.74312 32.1044L3.71239 33.6576ZM0.613401 29.038V30.9117H1.43503C1.58644 30.9117 1.72626 30.8889 1.85475 30.8432C1.98324 30.7977 2.09433 30.7323 2.18804 30.6469C2.28174 30.5616 2.35495 30.4572 2.40781 30.3334C2.46066 30.2097 2.48708 30.0711 2.48708 29.9172C2.48708 29.641 2.39756 29.4254 2.21865 29.2703C2.0396 29.1156 1.78073 29.0379 1.44204 29.0379H0.613401V29.038Z" fill="#1C3D3A"/>
<path d="M9.5882 33.6584H6.84961V28.4912H9.47293V29.039H7.45498V30.7578H9.32152V31.3019H7.45498V33.1108H9.5882V33.6584V33.6584Z" fill="#1C3D3A"/>
<path d="M12.7769 33.4491V32.7356C12.8584 32.8076 12.9564 32.8726 13.0705 32.9302C13.1846 32.9879 13.3047 33.0364 13.4308 33.076C13.5568 33.1157 13.6836 33.1463 13.811 33.168C13.9382 33.1896 14.056 33.2003 14.1641 33.2003C14.5363 33.2003 14.8145 33.1313 14.9983 32.9932C15.182 32.8552 15.2738 32.6563 15.2738 32.3968C15.2738 32.2576 15.2432 32.1362 15.1819 32.0329C15.1207 31.9296 15.0359 31.8354 14.9279 31.75C14.8197 31.6648 14.6919 31.5831 14.5442 31.505C14.3964 31.427 14.2373 31.3447 14.0667 31.2582C13.8866 31.1669 13.7185 31.0745 13.5622 30.9807C13.4061 30.8871 13.2703 30.7837 13.155 30.6709C13.0398 30.5579 12.949 30.4301 12.883 30.287C12.8168 30.1441 12.7839 29.9765 12.7839 29.7842C12.7839 29.5488 12.8355 29.344 12.9388 29.1698C13.0421 28.9958 13.1777 28.8523 13.346 28.7393C13.5141 28.6264 13.7057 28.5424 13.9207 28.4871C14.1356 28.4319 14.355 28.4043 14.5783 28.4043C15.0875 28.4043 15.4587 28.4655 15.6917 28.5879V29.2691C15.3866 29.0577 14.995 28.9518 14.5171 28.9518C14.3849 28.9518 14.2528 28.9658 14.1207 28.9934C13.9885 29.021 13.8707 29.066 13.7676 29.1285C13.6641 29.191 13.5801 29.2715 13.5153 29.3699C13.4504 29.4683 13.4181 29.5885 13.4181 29.7303C13.4181 29.8623 13.4426 29.9765 13.492 30.0726C13.5412 30.1688 13.6139 30.2563 13.71 30.3356C13.806 30.415 13.9231 30.4918 14.0613 30.5662C14.1994 30.6408 14.3586 30.7224 14.5388 30.8112C14.7237 30.9025 14.899 30.9986 15.0649 31.0995C15.2306 31.2005 15.3759 31.3121 15.5009 31.4345C15.6257 31.5571 15.7248 31.6928 15.7982 31.8418C15.8714 31.9907 15.9081 32.1614 15.9081 32.3535C15.9081 32.6082 15.8582 32.8236 15.7585 33.0003C15.6588 33.1769 15.5243 33.3205 15.3549 33.4309C15.1855 33.5413 14.9903 33.6213 14.7693 33.6705C14.5482 33.7197 14.3152 33.7444 14.0702 33.7444C13.9885 33.7444 13.8877 33.7376 13.7676 33.7245C13.6474 33.7113 13.5249 33.6922 13.4 33.6668C13.275 33.6416 13.1568 33.6105 13.0452 33.5733C12.9337 33.5362 12.8441 33.4947 12.7769 33.4491Z" fill="#1C3D3A"/>
<path d="M21.4498 33.7445C20.717 33.7445 20.1303 33.503 19.6895 33.0202C19.2486 32.5374 19.0283 31.9092 19.0283 31.1356C19.0283 30.3045 19.2529 29.6415 19.7022 29.1465C20.1514 28.6517 20.7627 28.4043 21.5364 28.4043C22.2499 28.4043 22.8246 28.6444 23.2607 29.1249C23.6965 29.6053 23.9147 30.2336 23.9147 31.0095C23.9147 31.8528 23.6913 32.5193 23.2445 33.0094C22.7977 33.4995 22.1993 33.7445 21.4498 33.7445ZM21.4931 28.952C20.9501 28.952 20.5094 29.1479 20.1707 29.5393C19.832 29.9308 19.6625 30.445 19.6625 31.0814C19.6625 31.7181 19.8277 32.2303 20.158 32.6183C20.4884 33.0062 20.919 33.2001 21.4499 33.2001C22.0169 33.2001 22.4637 33.0152 22.7904 32.6453C23.1171 32.2753 23.2805 31.7577 23.2805 31.0922C23.2805 30.4098 23.1219 29.8827 22.8048 29.5103C22.4876 29.1383 22.0503 28.952 21.4931 28.952Z" fill="#1C3D3A"/>
<path d="M31.0693 33.6576H30.3487L29.4839 32.209C29.4046 32.0746 29.3278 31.9599 29.2533 31.8649C29.1788 31.77 29.1026 31.6926 29.0245 31.6325C28.9465 31.5724 28.8623 31.5285 28.7723 31.5009C28.6822 31.4733 28.5807 31.4594 28.4678 31.4594H27.9706V33.6575H27.3652V28.4902H28.9074C29.1332 28.4902 29.3417 28.5185 29.5326 28.575C29.7236 28.6314 29.8893 28.7174 30.0298 28.8326C30.1703 28.9478 30.2802 29.0914 30.3595 29.2632C30.4387 29.4348 30.4784 29.6361 30.4784 29.8668C30.4784 30.0469 30.4513 30.2122 30.3972 30.3623C30.3431 30.5124 30.2663 30.6462 30.1667 30.7639C30.0669 30.8816 29.9469 30.982 29.8064 31.0647C29.6659 31.1477 29.5079 31.212 29.3325 31.2575V31.272C29.419 31.3104 29.494 31.3542 29.5576 31.4036C29.6213 31.4528 29.682 31.5112 29.7397 31.5783C29.7974 31.6456 29.8544 31.7219 29.9109 31.8071C29.9673 31.8924 30.0304 31.9914 30.1001 32.1044L31.0693 33.6576ZM27.9703 29.038V30.9117H28.792C28.9434 30.9117 29.0832 30.8889 29.2117 30.8432C29.3402 30.7977 29.4513 30.7323 29.545 30.6469C29.6387 30.5616 29.7119 30.4572 29.7647 30.3334C29.8176 30.2097 29.844 30.0711 29.844 29.9172C29.844 29.641 29.7545 29.4254 29.5756 29.2703C29.3965 29.1156 29.1377 29.0379 28.799 29.0379H27.9703V29.038Z" fill="#1C3D3A"/>
<path d="M37.2624 29.038H35.7707V33.6576H35.1655V29.038H33.6772V28.4902H37.2626V29.038H37.2624Z" fill="#1C3D3A"/>
<path d="M40.2681 33.4491V32.7356C40.3496 32.8076 40.4477 32.8726 40.5619 32.9302C40.6759 32.9879 40.796 33.0364 40.9222 33.076C41.0483 33.1157 41.175 33.1463 41.3023 33.168C41.4296 33.1897 41.5473 33.2003 41.6554 33.2003C42.0278 33.2003 42.3058 33.1313 42.4896 32.9932C42.6734 32.8552 42.7653 32.6563 42.7653 32.3968C42.7653 32.2576 42.7346 32.1362 42.6734 32.0329C42.6122 31.9296 42.5275 31.8354 42.4194 31.75C42.3112 31.6648 42.1833 31.5831 42.0355 31.505C41.8877 31.427 41.7286 31.3447 41.5581 31.2582C41.378 31.1669 41.2097 31.0745 41.0536 30.9807C40.8974 30.8871 40.7618 30.7837 40.6464 30.6709C40.5311 30.5579 40.4404 30.4301 40.3743 30.287C40.3082 30.1441 40.2752 29.9765 40.2752 29.7842C40.2752 29.5488 40.3269 29.344 40.4301 29.1698C40.5334 28.9958 40.669 28.8523 40.8373 28.7393C41.0056 28.6264 41.197 28.5424 41.4122 28.4871C41.6271 28.4319 41.8463 28.4043 42.0698 28.4043C42.579 28.4043 42.9502 28.4655 43.1831 28.5879V29.2691C42.878 29.0577 42.4865 28.9518 42.0085 28.9518C41.8764 28.9518 41.7443 28.9658 41.6122 28.9934C41.4802 29.021 41.3623 29.066 41.259 29.1285C41.1558 29.191 41.0716 29.2715 41.0069 29.3699C40.9421 29.4683 40.9096 29.5885 40.9096 29.7303C40.9096 29.8623 40.9342 29.9765 40.9835 30.0726C41.0327 30.1688 41.1053 30.2563 41.2015 30.3356C41.2975 30.415 41.4145 30.4918 41.5527 30.5662C41.6908 30.6408 41.85 30.7224 42.0301 30.8112C42.2151 30.9025 42.3905 30.9986 42.5562 31.0995C42.7219 31.2005 42.8673 31.3121 42.9921 31.4345C43.117 31.5571 43.216 31.6928 43.2894 31.8418C43.3626 31.9907 43.3993 32.1614 43.3993 32.3535C43.3993 32.6082 43.3494 32.8236 43.2498 33.0003C43.15 33.1769 43.0156 33.3205 42.8462 33.4309C42.6767 33.5413 42.4816 33.6213 42.2605 33.6705C42.0396 33.7197 41.8066 33.7444 41.5615 33.7444C41.4799 33.7444 41.3789 33.7376 41.2588 33.7245C41.1386 33.7113 41.0161 33.6922 40.8912 33.6668C40.7663 33.6416 40.648 33.6105 40.5362 33.5733C40.4249 33.5362 40.3353 33.4947 40.2681 33.4491Z" fill="#1C3D3A"/>
<path d="M142.062 5.23633H136V24.5745H141.993C144.607 24.5745 147.11 23.922 149.128 22.1791C151.084 20.4891 152.212 17.5281 152.212 14.9578C152.212 12.4307 151.108 9.95267 149.425 8.13695C147.525 6.09021 144.824 5.23633 142.062 5.23633ZM147.068 20.7995C145.698 21.8315 144.021 22.2504 142.074 22.2649C141.998 22.266 141.531 22.2671 141.453 22.2671H138.527V7.54538H141.741C144.485 7.54538 146.792 8.63352 148.374 10.8238C149.223 12.0016 149.685 13.4254 149.685 14.9319C149.685 17.4093 148.758 19.5284 147.068 20.7995Z" fill="#1C3D3A"/>
<path d="M164.606 4.87891C159.023 4.87891 154.494 9.32969 154.494 14.9393C154.494 20.4718 159.11 24.9312 164.606 24.9312C170.121 24.9312 174.729 20.4804 174.729 14.9393C174.729 9.32969 170.217 4.87891 164.606 4.87891ZM171.69 17.6656C170.543 20.6639 167.898 22.6238 164.606 22.6238C161.55 22.6238 158.984 20.9257 157.745 18.1897C157.287 17.1777 157.019 16.0674 157.019 14.9399C157.019 13.8085 157.286 12.7145 157.728 11.7127C158.95 8.93514 161.489 7.18688 164.606 7.18688C168.927 7.18688 172.202 10.7152 172.202 14.9658C172.203 15.9017 172.012 16.8209 171.69 17.6656Z" fill="#1C3D3A"/>
<path d="M190.452 19.4356H190.4V5.23633H187.526L173.596 24.5745H176.793L187.822 8.84294H187.874V24.5745H189.834L200.993 8.87749H201.045V24.5745H203.571V5.23633H200.732L190.452 19.4356Z" fill="#1C3D3A"/>
<path d="M216.672 4.87891C211.09 4.87891 206.56 9.32969 206.56 14.9393C206.56 20.4718 211.176 24.9312 216.672 24.9312C222.188 24.9312 226.796 20.4804 226.796 14.9393C226.795 9.32969 222.283 4.87891 216.672 4.87891ZM223.755 17.6656C222.609 20.6639 219.965 22.6238 216.672 22.6238C213.616 22.6238 211.05 20.9262 209.811 18.1897C209.352 17.1777 209.086 16.0674 209.086 14.9399C209.086 13.8085 209.351 12.7145 209.795 11.7127C211.017 8.93514 213.555 7.18688 216.672 7.18688C220.995 7.18688 224.269 10.7152 224.269 14.9658C224.269 15.9017 224.079 16.8209 223.755 17.6656Z" fill="#1C3D3A"/>
<path d="M235.14 5.23633H229.618V24.5745H231.629H232.144V16.8917H234.819C234.899 16.8917 235.303 16.8906 235.384 16.8885C236.587 16.8631 237.751 16.7114 238.762 16.2445C240.092 15.6287 241.056 14.6318 241.502 13.3531C241.925 12.1441 241.963 10.6257 241.609 9.26611C240.859 6.38222 238.259 5.23633 235.14 5.23633ZM237.838 14.0715C237.018 14.4871 236.109 14.5837 235.105 14.5837H232.143V7.54538H235.105C236.109 7.54538 237.018 7.64254 237.838 8.05653C238.943 8.61409 239.626 9.61587 239.626 11.064C239.626 12.5122 238.943 13.515 237.838 14.0715Z" fill="#1C3D3A"/>
<path d="M254.747 22.2671H247.344V5.23633H244.817V24.5745H253.153H254.488H256.238L260.34 18.6076H267.17V24.5745H269.696V5.23633H266.5L254.747 22.2671ZM267.17 8.40736V16.2991H261.935L267.119 8.40736H267.17Z" fill="#1C3D3A"/>
<path d="M286.475 5.23633V20.3936H286.422L276.552 5.23633H273.625V24.5745H276.151V8.93902H276.204L286.404 24.5745H289V5.23633H286.475Z" fill="#1C3D3A"/>
</svg>
