<?xml version="1.0" encoding="UTF-8" standalone="no"?>
<!DOCTYPE svg PUBLIC "-//W3C//DTD SVG 1.1//EN" "http://www.w3.org/Graphics/SVG/1.1/DTD/svg11.dtd">
<svg width="100%" height="100%" viewBox="0 0 2519 314" version="1.1" xmlns="http://www.w3.org/2000/svg" xmlns:xlink="http://www.w3.org/1999/xlink" xml:space="preserve" xmlns:serif="http://www.serif.com/" style="fill-rule:evenodd;clip-rule:evenodd;stroke-linejoin:round;stroke-miterlimit:2;">
    <g transform="matrix(5.55556,0,0,5.55556,3.66075,55.2469)">
        <path d="M18.932,15.111L19.222,13.729L19.318,13.729C20.25,13.729 20.904,13.558 21.279,13.215C21.654,12.861 21.932,12.341 22.114,11.656L25.875,-5.927L13.854,15.111L12.086,15.111L8.888,-5.927L5.207,11.495C5.111,11.956 5.063,12.261 5.063,12.411C5.063,13.29 5.855,13.729 7.441,13.729L7.859,13.729L7.57,15.111L-0.659,15.111L-0.37,13.729L0.064,13.729C1.157,13.729 1.913,13.536 2.33,13.15C2.759,12.765 3.048,12.224 3.198,11.527L6.654,-4.769C6.739,-5.177 6.782,-5.482 6.782,-5.685C6.782,-6.564 5.989,-7.003 4.404,-7.003L3.986,-7.003L4.275,-8.386L11.748,-8.386L14.545,10.37L25.313,-8.386L32.657,-8.386L32.352,-7.003L31.934,-7.003C30.884,-7.003 30.129,-6.8 29.668,-6.393C29.207,-5.996 28.897,-5.412 28.736,-4.641L25.313,11.495C25.227,11.902 25.184,12.208 25.184,12.411C25.184,13.29 25.972,13.729 27.547,13.729L27.981,13.729L27.675,15.111L18.932,15.111ZM33.525,0.599C33.332,-0.044 33.07,-0.494 32.738,-0.752C32.406,-1.019 31.913,-1.153 31.259,-1.153L30.922,-1.153L31.179,-2.535L35.984,-2.535L38.556,6.352C39.349,9.106 39.809,11.093 39.938,12.315L40.034,12.315C43.002,7.804 44.486,4.161 44.486,1.386C44.486,0.197 43.945,-0.398 42.863,-0.398C42.863,-1.137 43.077,-1.727 43.506,-2.166C43.934,-2.605 44.438,-2.825 45.016,-2.825C46.506,-2.825 47.25,-1.903 47.25,-0.06C47.25,2.586 45.772,6.309 42.815,11.109C39.858,15.899 37.484,19.081 35.695,20.656C33.916,22.231 31.57,23.018 28.656,23.018C27.498,23.018 26.465,22.82 25.554,22.424L26.052,20.768C26.823,21.015 27.681,21.138 28.623,21.138C31.763,21.138 34.843,19.14 37.865,15.143L33.525,0.599ZM68.047,-2.857C69.986,-2.857 71.513,-2.273 72.627,-1.105C73.742,0.063 74.299,1.75 74.299,3.957C74.299,6.882 73.404,9.529 71.615,11.897C69.826,14.254 67.474,15.433 64.56,15.433C62.577,15.433 61.029,14.833 59.915,13.633C58.801,12.433 58.243,10.766 58.243,8.634C58.243,5.677 59.143,3.025 60.943,0.679C62.754,-1.678 65.122,-2.857 68.047,-2.857ZM64.929,13.825C66.74,13.825 68.181,12.754 69.252,10.611C70.335,8.458 70.876,6.074 70.876,3.459C70.876,0.406 69.804,-1.121 67.661,-1.121C65.872,-1.121 64.426,-0.044 63.322,2.109C62.218,4.263 61.667,6.657 61.667,9.293C61.667,12.315 62.754,13.825 64.929,13.825ZM81.981,21.636L81.692,23.018L75.504,23.018L79.876,2.141C80.069,1.22 80.165,0.641 80.165,0.406C80.165,-0.634 79.399,-1.153 77.867,-1.153L77.61,-1.153L77.899,-2.535L83.733,-2.535L82.945,1.852L83.106,1.852C84.692,-1.287 86.701,-2.857 89.133,-2.857C90.472,-2.857 91.501,-2.348 92.219,-1.33C92.947,-0.312 93.312,1.161 93.312,3.09C93.312,6.036 92.39,8.833 90.547,11.479C88.715,14.115 86.363,15.433 83.492,15.433C82.238,15.433 81.167,15.181 80.278,14.677C80.181,15.384 80.09,15.915 80.004,16.268L79.554,18.277C79.351,19.188 79.249,19.799 79.249,20.109C79.249,21.127 80.015,21.636 81.547,21.636L81.981,21.636ZM80.792,12.781C81.499,13.563 82.367,13.954 83.395,13.954C85.228,13.954 86.776,12.759 88.04,10.37C89.315,7.97 89.953,5.532 89.953,3.057C89.953,0.497 89.262,-0.784 87.879,-0.784C86.744,-0.784 85.597,0.009 84.44,1.595C83.283,3.17 82.517,4.809 82.142,6.513L80.792,12.781ZM100.978,21.636L100.688,23.018L94.501,23.018L98.872,2.141C99.065,1.22 99.162,0.641 99.162,0.406C99.162,-0.634 98.396,-1.153 96.863,-1.153L96.606,-1.153L96.896,-2.535L102.73,-2.535L101.942,1.852L102.103,1.852C103.688,-1.287 105.697,-2.857 108.13,-2.857C109.469,-2.857 110.497,-2.348 111.215,-1.33C111.944,-0.312 112.308,1.161 112.308,3.09C112.308,6.036 111.387,8.833 109.544,11.479C107.712,14.115 105.36,15.433 102.488,15.433C101.235,15.433 100.163,15.181 99.274,14.677C99.178,15.384 99.087,15.915 99.001,16.268L98.551,18.277C98.347,19.188 98.246,19.799 98.246,20.109C98.246,21.127 99.012,21.636 100.544,21.636L100.978,21.636ZM99.788,12.781C100.496,13.563 101.363,13.954 102.392,13.954C104.224,13.954 105.772,12.759 107.037,10.37C108.312,7.97 108.949,5.532 108.949,3.057C108.949,0.497 108.258,-0.784 106.876,-0.784C105.74,-0.784 104.594,0.009 103.437,1.595C102.28,3.17 101.513,4.809 101.138,6.513L99.788,12.781ZM124.94,-2.857C126.88,-2.857 128.407,-2.273 129.521,-1.105C130.635,0.063 131.192,1.75 131.192,3.957C131.192,6.882 130.298,9.529 128.508,11.897C126.719,14.254 124.367,15.433 121.453,15.433C119.471,15.433 117.923,14.833 116.808,13.633C115.694,12.433 115.137,10.766 115.137,8.634C115.137,5.677 116.037,3.025 117.837,0.679C119.648,-1.678 122.015,-2.857 124.94,-2.857ZM121.823,13.825C123.633,13.825 125.074,12.754 126.146,10.611C127.228,8.458 127.769,6.074 127.769,3.459C127.769,0.406 126.698,-1.121 124.555,-1.121C122.765,-1.121 121.319,-0.044 120.215,2.109C119.112,4.263 118.56,6.657 118.56,9.293C118.56,12.315 119.648,13.825 121.823,13.825ZM145.464,1.916C145.464,0.181 145.025,-0.687 144.146,-0.687C143.128,-0.687 142.046,0.315 140.9,2.318C139.764,4.322 138.923,6.588 138.376,9.116L137.139,15.111L134.069,15.111L136.833,1.884C136.962,1.274 137.026,0.781 137.026,0.406C137.026,-0.634 136.153,-1.153 134.407,-1.153L134.133,-1.153L134.439,-2.535L140.257,-2.535L139.566,2.206L139.903,2.206C140.782,0.245 141.65,-1.089 142.507,-1.796C143.364,-2.503 144.36,-2.857 145.496,-2.857C147.296,-2.857 148.196,-2.102 148.196,-0.591C148.196,1.081 147.285,1.916 145.464,1.916ZM157.919,12.636L158.482,13.858C157.003,14.908 155.525,15.433 154.046,15.433C151.657,15.433 150.462,14.152 150.462,11.591C150.462,10.766 150.569,9.845 150.784,8.827L152.792,-0.655L150.285,-0.655L150.591,-1.973C152.734,-1.973 154.41,-3.51 155.621,-6.585L157.132,-6.585L156.28,-2.535L160.266,-2.535L159.864,-0.655L155.878,-0.655L153.885,8.731C153.617,9.995 153.484,10.938 153.484,11.559C153.484,12.759 154.067,13.359 155.235,13.359C156.125,13.359 157.019,13.118 157.919,12.636ZM162.307,-2.535L168.43,-2.535L166.26,7.316C165.821,9.309 165.602,10.633 165.602,11.286C165.602,12.625 166.137,13.295 167.209,13.295C168.334,13.295 169.544,12.486 170.841,10.868C172.148,9.24 173,7.504 173.396,5.661L175.116,-2.535L178.298,-2.535L176.032,8.04C175.7,9.593 175.534,10.809 175.534,11.688C175.534,12.802 175.898,13.359 176.627,13.359C177.248,13.359 177.95,13.118 178.732,12.636L179.327,13.6C177.934,14.822 176.541,15.433 175.148,15.433C174.323,15.433 173.653,15.138 173.139,14.549C172.636,13.959 172.384,13.215 172.384,12.315C172.384,11.747 172.437,11.099 172.544,10.37L172.287,10.37C171.098,12.331 170.032,13.659 169.089,14.356C168.157,15.052 167.102,15.4 165.923,15.4C163.577,15.4 162.403,14.184 162.403,11.752C162.403,11.056 162.602,9.85 162.998,8.136L164.284,2.366C164.477,1.499 164.573,0.845 164.573,0.406C164.573,-0.634 163.807,-1.153 162.275,-1.153L162.018,-1.153L162.307,-2.535ZM184.389,15.111L181.32,15.111L184.084,1.884C184.212,1.274 184.277,0.781 184.277,0.406C184.277,-0.634 183.511,-1.153 181.978,-1.153L181.721,-1.153L182.011,-2.535L188.102,-2.535L187.218,1.611L187.539,1.611C189.318,-1.346 191.316,-2.825 193.534,-2.825C195.88,-2.825 197.054,-1.609 197.054,0.824C197.054,1.52 196.855,2.725 196.459,4.44L195.607,8.329C195.318,9.647 195.173,10.799 195.173,11.784C195.173,12.834 195.559,13.359 196.33,13.359C196.963,13.359 197.664,13.108 198.436,12.604L199.03,13.568C197.595,14.811 196.255,15.433 195.012,15.433C194.102,15.433 193.373,15.138 192.827,14.549C192.291,13.959 192.023,13.161 192.023,12.154C192.023,11.147 192.232,9.663 192.65,7.702L193.405,4.295C193.727,2.966 193.887,1.943 193.887,1.225C193.887,-0.071 193.384,-0.719 192.377,-0.719C191.155,-0.719 189.902,0.106 188.616,1.756C187.341,3.406 186.521,5.05 186.157,6.69L184.389,15.111ZM206.986,-5.83C205.754,-5.83 205.138,-6.43 205.138,-7.63C205.138,-8.327 205.314,-8.884 205.668,-9.302C206.032,-9.73 206.514,-9.944 207.114,-9.944C208.347,-9.944 208.963,-9.339 208.963,-8.128C208.963,-7.378 208.775,-6.805 208.4,-6.409C208.036,-6.023 207.564,-5.83 206.986,-5.83ZM201.65,-1.153L201.939,-2.535L207.838,-2.535L205.604,8.04C205.272,9.615 205.105,10.831 205.105,11.688C205.105,12.802 205.47,13.359 206.198,13.359C206.83,13.359 207.618,13.075 208.561,12.508L209.156,13.472C207.634,14.779 206.15,15.433 204.704,15.433C203.889,15.433 203.23,15.138 202.727,14.549C202.223,13.959 201.971,13.215 201.971,12.315C201.971,11.329 202.218,9.604 202.711,7.14L203.98,1.097C204.055,0.743 204.093,0.454 204.093,0.229C204.093,-0.693 203.423,-1.153 202.084,-1.153L201.65,-1.153ZM219.538,12.636L220.1,13.858C218.622,14.908 217.143,15.433 215.664,15.433C213.275,15.433 212.081,14.152 212.081,11.591C212.081,10.766 212.188,9.845 212.402,8.827L214.411,-0.655L211.904,-0.655L212.209,-1.973C214.352,-1.973 216.029,-3.51 217.239,-6.585L218.75,-6.585L217.898,-2.535L221.884,-2.535L221.482,-0.655L217.497,-0.655L215.504,8.731C215.236,9.995 215.102,10.938 215.102,11.559C215.102,12.759 215.686,13.359 216.854,13.359C217.743,13.359 218.638,13.118 219.538,12.636ZM229.132,-5.83C227.9,-5.83 227.284,-6.43 227.284,-7.63C227.284,-8.327 227.461,-8.884 227.815,-9.302C228.179,-9.73 228.661,-9.944 229.261,-9.944C230.493,-9.944 231.109,-9.339 231.109,-8.128C231.109,-7.378 230.922,-6.805 230.547,-6.409C230.182,-6.023 229.711,-5.83 229.132,-5.83ZM223.797,-1.153L224.086,-2.535L229.984,-2.535L227.75,8.04C227.418,9.615 227.252,10.831 227.252,11.688C227.252,12.802 227.616,13.359 228.345,13.359C228.977,13.359 229.765,13.075 230.707,12.508L231.302,13.472C229.781,14.779 228.297,15.433 226.85,15.433C226.036,15.433 225.377,15.138 224.874,14.549C224.37,13.959 224.118,13.215 224.118,12.315C224.118,11.329 224.365,9.604 224.857,7.14L226.127,1.097C226.202,0.743 226.24,0.454 226.24,0.229C226.24,-0.693 225.57,-1.153 224.231,-1.153L223.797,-1.153ZM244.979,10.997C245.204,11.136 245.317,11.409 245.317,11.816C245.317,12.695 244.797,13.52 243.758,14.291C242.729,15.052 241.347,15.433 239.611,15.433C237.693,15.433 236.145,14.827 234.966,13.616C233.788,12.406 233.199,10.745 233.199,8.634C233.199,5.763 234.125,3.132 235.979,0.743C237.833,-1.657 240.174,-2.857 243.002,-2.857C244.395,-2.857 245.472,-2.525 246.233,-1.86C247.004,-1.196 247.39,-0.269 247.39,0.92C247.39,2.699 246.463,4.247 244.609,5.565C242.767,6.882 240.511,7.541 237.843,7.541L237.281,7.541C237.088,7.541 236.89,7.531 236.686,7.509C236.643,7.809 236.622,8.27 236.622,8.891C236.622,11.87 237.827,13.359 240.238,13.359C242.113,13.359 243.693,12.572 244.979,10.997ZM236.991,5.999L237.313,5.999C239.252,5.999 240.849,5.527 242.102,4.584C243.367,3.641 243.999,2.42 243.999,0.92C243.999,-0.548 243.361,-1.282 242.086,-1.282C241.025,-1.282 240.034,-0.612 239.113,0.727C238.191,2.056 237.484,3.813 236.991,5.999ZM259.926,2.334C259.926,1.231 259.663,0.347 259.138,-0.318C258.624,-0.982 257.901,-1.314 256.968,-1.314C255.983,-1.314 255.201,-1.046 254.622,-0.51C254.054,0.015 253.77,0.69 253.77,1.515C253.77,2.243 254.043,2.865 254.59,3.379C255.136,3.893 255.983,4.402 257.129,4.906C259.765,6.084 261.083,7.788 261.083,10.016C261.083,11.634 260.461,12.941 259.218,13.938C257.976,14.934 256.326,15.433 254.268,15.433C252.608,15.433 251.284,15.1 250.299,14.436C249.324,13.761 248.836,12.856 248.836,11.72C248.836,11.013 249.029,10.477 249.415,10.113C249.811,9.738 250.309,9.55 250.909,9.55C250.909,10.911 251.236,11.972 251.89,12.733C252.554,13.483 253.481,13.858 254.67,13.858C257.038,13.858 258.222,12.84 258.222,10.804C258.222,10.022 257.97,9.363 257.467,8.827C256.963,8.281 256.106,7.729 254.895,7.172C253.32,6.422 252.259,5.65 251.713,4.857C251.177,4.054 250.909,3.127 250.909,2.077C250.909,0.641 251.493,-0.532 252.661,-1.443C253.84,-2.364 255.372,-2.825 257.258,-2.825C258.876,-2.825 260.135,-2.525 261.035,-1.925C261.945,-1.325 262.401,-0.585 262.401,0.293C262.401,1.654 261.576,2.334 259.926,2.334ZM272.365,4.681L271.545,8.49L269.536,8.49L270.565,3.62C275.011,1.97 277.235,-0.409 277.235,-3.516C277.235,-4.587 276.945,-5.444 276.367,-6.087C275.788,-6.741 275.017,-7.068 274.053,-7.068C271.792,-7.068 270.431,-5.514 269.97,-2.407C268.385,-2.407 267.592,-3.06 267.592,-4.368C267.592,-5.589 268.202,-6.618 269.424,-7.453C270.656,-8.3 272.263,-8.723 274.245,-8.723C278.392,-8.723 280.465,-6.902 280.465,-3.259C280.465,0.074 277.765,2.72 272.365,4.681ZM269.81,15.368C268.449,15.368 267.769,14.699 267.769,13.359C267.769,12.599 267.961,11.988 268.347,11.527C268.744,11.066 269.274,10.836 269.938,10.836C270.581,10.836 271.079,11.018 271.433,11.383C271.797,11.747 271.979,12.234 271.979,12.845C271.979,13.627 271.781,14.243 271.385,14.693C270.999,15.143 270.474,15.368 269.81,15.368ZM307.224,15.111L307.514,13.729L307.61,13.729C308.542,13.729 309.196,13.558 309.571,13.215C309.946,12.861 310.224,12.341 310.406,11.656L314.167,-5.927L302.146,15.111L300.378,15.111L297.18,-5.927L293.499,11.495C293.403,11.956 293.354,12.261 293.354,12.411C293.354,13.29 294.147,13.729 295.733,13.729L296.151,13.729L295.862,15.111L287.633,15.111L287.922,13.729L288.356,13.729C289.449,13.729 290.204,13.536 290.622,13.15C291.051,12.765 291.34,12.224 291.49,11.527L294.946,-4.769C295.031,-5.177 295.074,-5.482 295.074,-5.685C295.074,-6.564 294.281,-7.003 292.696,-7.003L292.278,-7.003L292.567,-8.386L300.04,-8.386L302.837,10.37L313.605,-8.386L320.949,-8.386L320.644,-7.003L320.226,-7.003C319.176,-7.003 318.421,-6.8 317.96,-6.393C317.499,-5.996 317.189,-5.412 317.028,-4.641L313.605,11.495C313.519,11.902 313.476,12.208 313.476,12.411C313.476,13.29 314.264,13.729 315.839,13.729L316.273,13.729L315.967,15.111L307.224,15.111ZM321.817,0.599C321.624,-0.044 321.362,-0.494 321.03,-0.752C320.698,-1.019 320.205,-1.153 319.551,-1.153L319.214,-1.153L319.471,-2.535L324.276,-2.535L326.848,6.352C327.641,9.106 328.101,11.093 328.23,12.315L328.326,12.315C331.294,7.804 332.778,4.161 332.778,1.386C332.778,0.197 332.237,-0.398 331.155,-0.398C331.155,-1.137 331.369,-1.727 331.798,-2.166C332.226,-2.605 332.73,-2.825 333.308,-2.825C334.798,-2.825 335.542,-1.903 335.542,-0.06C335.542,2.586 334.064,6.309 331.107,11.109C328.149,15.899 325.776,19.081 323.987,20.656C322.208,22.231 319.862,23.018 316.948,23.018C315.79,23.018 314.756,22.82 313.846,22.424L314.344,20.768C315.115,21.015 315.973,21.138 316.915,21.138C320.055,21.138 323.135,19.14 326.157,15.143L321.817,0.599ZM344.542,4.745L343.096,11.495C343,11.945 342.951,12.25 342.951,12.411C342.951,13.29 343.744,13.729 345.33,13.729L346.423,13.729L346.117,15.111L335.912,15.111L336.217,13.729L336.635,13.729C337.728,13.729 338.483,13.536 338.901,13.15C339.33,12.765 339.619,12.224 339.769,11.527L343.225,-4.769C343.31,-5.177 343.353,-5.482 343.353,-5.685C343.353,-6.564 342.566,-7.003 340.991,-7.003L340.557,-7.003L340.846,-8.386L349.476,-8.386C354.501,-8.386 357.014,-6.521 357.014,-2.793C357.014,0.829 354.984,3.122 350.923,4.086L353.301,11.125C353.687,12.25 354.078,12.968 354.475,13.279C354.871,13.579 355.38,13.729 356.001,13.729L356.259,13.729L356.001,15.111L355.568,15.111C353.682,15.111 352.348,14.865 351.566,14.372C350.784,13.868 350.162,12.829 349.701,11.254L347.805,4.745L344.542,4.745ZM344.864,3.202L347.403,3.202C349.364,3.202 350.875,2.704 351.935,1.707C352.996,0.7 353.526,-0.735 353.526,-2.6C353.526,-4.057 353.2,-5.123 352.546,-5.798C351.903,-6.473 350.794,-6.81 349.219,-6.81L346.969,-6.81L344.864,3.202ZM371.623,10.997C371.848,11.136 371.961,11.409 371.961,11.816C371.961,12.695 371.441,13.52 370.402,14.291C369.373,15.052 367.991,15.433 366.255,15.433C364.337,15.433 362.789,14.827 361.61,13.616C360.432,12.406 359.843,10.745 359.843,8.634C359.843,5.763 360.769,3.132 362.623,0.743C364.477,-1.657 366.818,-2.857 369.646,-2.857C371.039,-2.857 372.116,-2.525 372.877,-1.86C373.648,-1.196 374.034,-0.269 374.034,0.92C374.034,2.699 373.107,4.247 371.253,5.565C369.411,6.882 367.155,7.541 364.487,7.541L363.925,7.541C363.732,7.541 363.534,7.531 363.33,7.509C363.287,7.809 363.266,8.27 363.266,8.891C363.266,11.87 364.471,13.359 366.882,13.359C368.757,13.359 370.337,12.572 371.623,10.997ZM363.635,5.999L363.957,5.999C365.896,5.999 367.493,5.527 368.746,4.584C370.011,3.641 370.643,2.42 370.643,0.92C370.643,-0.548 370.005,-1.282 368.73,-1.282C367.669,-1.282 366.678,-0.612 365.757,0.727C364.835,2.056 364.128,3.813 363.635,5.999ZM386.57,2.334C386.57,1.231 386.307,0.347 385.782,-0.318C385.268,-0.982 384.545,-1.314 383.612,-1.314C382.627,-1.314 381.845,-1.046 381.266,-0.51C380.698,0.015 380.414,0.69 380.414,1.515C380.414,2.243 380.687,2.865 381.234,3.379C381.78,3.893 382.627,4.402 383.773,4.906C386.409,6.084 387.727,7.788 387.727,10.016C387.727,11.634 387.105,12.941 385.862,13.938C384.62,14.934 382.97,15.433 380.912,15.433C379.252,15.433 377.928,15.1 376.943,14.436C375.968,13.761 375.48,12.856 375.48,11.72C375.48,11.013 375.673,10.477 376.059,10.113C376.455,9.738 376.953,9.55 377.553,9.55C377.553,10.911 377.88,11.972 378.534,12.733C379.198,13.483 380.125,13.858 381.314,13.858C383.682,13.858 384.866,12.84 384.866,10.804C384.866,10.022 384.614,9.363 384.111,8.827C383.607,8.281 382.75,7.729 381.539,7.172C379.964,6.422 378.903,5.65 378.357,4.857C377.821,4.054 377.553,3.127 377.553,2.077C377.553,0.641 378.137,-0.532 379.305,-1.443C380.484,-2.364 382.016,-2.825 383.902,-2.825C385.52,-2.825 386.779,-2.525 387.679,-1.925C388.589,-1.325 389.045,-0.585 389.045,0.293C389.045,1.654 388.22,2.334 386.57,2.334ZM401.147,-2.857C403.086,-2.857 404.613,-2.273 405.727,-1.105C406.841,0.063 407.398,1.75 407.398,3.957C407.398,6.882 406.504,9.529 404.714,11.897C402.925,14.254 400.573,15.433 397.659,15.433C395.677,15.433 394.129,14.833 393.014,13.633C391.9,12.433 391.343,10.766 391.343,8.634C391.343,5.677 392.243,3.025 394.043,0.679C395.854,-1.678 398.222,-2.857 401.147,-2.857ZM398.029,13.825C399.839,13.825 401.28,12.754 402.352,10.611C403.434,8.458 403.975,6.074 403.975,3.459C403.975,0.406 402.904,-1.121 400.761,-1.121C398.972,-1.121 397.525,-0.044 396.422,2.109C395.318,4.263 394.766,6.657 394.766,9.293C394.766,12.315 395.854,13.825 398.029,13.825ZM421.67,1.916C421.67,0.181 421.231,-0.687 420.352,-0.687C419.334,-0.687 418.252,0.315 417.106,2.318C415.97,4.322 415.129,6.588 414.582,9.116L413.345,15.111L410.275,15.111L413.04,1.884C413.168,1.274 413.232,0.781 413.232,0.406C413.232,-0.634 412.359,-1.153 410.613,-1.153L410.34,-1.153L410.645,-2.535L416.463,-2.535L415.772,2.206L416.109,2.206C416.988,0.245 417.856,-1.089 418.713,-1.796C419.57,-2.503 420.566,-2.857 421.702,-2.857C423.502,-2.857 424.402,-2.102 424.402,-0.591C424.402,1.081 423.491,1.916 421.67,1.916ZM434.125,12.636L434.688,13.858C433.209,14.908 431.731,15.433 430.252,15.433C427.863,15.433 426.668,14.152 426.668,11.591C426.668,10.766 426.775,9.845 426.99,8.827L428.999,-0.655L426.491,-0.655L426.797,-1.973C428.94,-1.973 430.616,-3.51 431.827,-6.585L433.338,-6.585L432.486,-2.535L436.472,-2.535L436.07,-0.655L432.084,-0.655L430.091,8.731C429.824,9.995 429.69,10.938 429.69,11.559C429.69,12.759 430.274,13.359 431.441,13.359C432.331,13.359 433.225,13.118 434.125,12.636ZM448.252,2.334C448.252,1.231 447.99,0.347 447.465,-0.318C446.951,-0.982 446.227,-1.314 445.295,-1.314C444.309,-1.314 443.527,-1.046 442.949,-0.51C442.381,0.015 442.097,0.69 442.097,1.515C442.097,2.243 442.37,2.865 442.917,3.379C443.463,3.893 444.309,4.402 445.456,4.906C448.092,6.084 449.409,7.788 449.409,10.016C449.409,11.634 448.788,12.941 447.545,13.938C446.302,14.934 444.652,15.433 442.595,15.433C440.934,15.433 439.611,15.1 438.625,14.436C437.65,13.761 437.163,12.856 437.163,11.72C437.163,11.013 437.356,10.477 437.742,10.113C438.138,9.738 438.636,9.55 439.236,9.55C439.236,10.911 439.563,11.972 440.217,12.733C440.881,13.483 441.808,13.858 442.997,13.858C445.365,13.858 446.549,12.84 446.549,10.804C446.549,10.022 446.297,9.363 445.793,8.827C445.29,8.281 444.433,7.729 443.222,7.172C441.647,6.422 440.586,5.65 440.04,4.857C439.504,4.054 439.236,3.127 439.236,2.077C439.236,0.641 439.82,-0.532 440.988,-1.443C442.167,-2.364 443.699,-2.825 445.584,-2.825C447.202,-2.825 448.461,-2.525 449.361,-1.925C450.272,-1.325 450.727,-0.585 450.727,0.293C450.727,1.654 449.902,2.334 448.252,2.334Z" style="fill:rgb(189,189,189);fill-rule:nonzero;"/>
    </g>
    <g transform="matrix(5.55556,0,0,5.55556,-1.43365,277.736)">
        <path d="M8.009,2.027C8.009,3.44 7.625,4.521 6.856,5.27C6.091,6.016 4.988,6.389 3.548,6.389L1.177,6.389L1.177,-2.171L3.8,-2.171C5.131,-2.171 6.165,-1.802 6.903,-1.064C7.64,-0.327 8.009,0.704 8.009,2.027ZM6.955,2.062C6.955,0.946 6.674,0.105 6.112,-0.461C5.554,-1.027 4.723,-1.31 3.618,-1.31L2.172,-1.31L2.172,5.528L3.384,5.528C4.571,5.528 5.462,5.237 6.06,4.656C6.657,4.07 6.955,3.206 6.955,2.062ZM16.914,6.389L12.142,6.389L12.142,-2.171L16.914,-2.171L16.914,-1.287L13.137,-1.287L13.137,1.471L16.685,1.471L16.685,2.349L13.137,2.349L13.137,5.499L16.914,5.499L16.914,6.389ZM25.923,-2.171L26.995,-2.171L23.909,6.389L22.926,6.389L19.858,-2.171L20.912,-2.171L22.879,3.368C23.105,4.004 23.285,4.622 23.418,5.224C23.558,4.591 23.742,3.961 23.968,3.332L25.923,-2.171ZM35.167,6.389L30.396,6.389L30.396,-2.171L35.167,-2.171L35.167,-1.287L31.391,-1.287L31.391,1.471L34.939,1.471L34.939,2.349L31.391,2.349L31.391,5.499L35.167,5.499L35.167,6.389ZM39.288,6.389L39.288,-2.171L40.284,-2.171L40.284,5.487L44.06,5.487L44.06,6.389L39.288,6.389ZM55.166,2.097C55.166,3.467 54.818,4.544 54.124,5.329C53.433,6.113 52.471,6.506 51.237,6.506C49.976,6.506 49.003,6.121 48.316,5.352C47.633,4.579 47.291,3.491 47.291,2.085C47.291,0.692 47.635,-0.387 48.322,-1.152C49.008,-1.921 49.984,-2.306 51.249,-2.306C52.478,-2.306 53.439,-1.915 54.129,-1.135C54.82,-0.354 55.166,0.723 55.166,2.097ZM48.345,2.097C48.345,3.256 48.591,4.136 49.083,4.738C49.578,5.335 50.297,5.633 51.237,5.633C52.186,5.633 52.902,5.335 53.386,4.738C53.87,4.14 54.112,3.26 54.112,2.097C54.112,0.946 53.87,0.073 53.386,-0.52C52.906,-1.117 52.193,-1.416 51.249,-1.416C50.3,-1.416 49.578,-1.115 49.083,-0.514C48.591,0.083 48.345,0.953 48.345,2.097ZM64.726,0.323C64.726,1.19 64.429,1.857 63.836,2.325C63.247,2.79 62.401,3.022 61.301,3.022L60.294,3.022L60.294,6.389L59.298,6.389L59.298,-2.171L61.517,-2.171C63.656,-2.171 64.726,-1.34 64.726,0.323ZM60.294,2.167L61.19,2.167C62.072,2.167 62.71,2.025 63.104,1.74C63.498,1.455 63.695,0.998 63.695,0.37C63.695,-0.196 63.51,-0.618 63.139,-0.895C62.768,-1.172 62.191,-1.31 61.406,-1.31L60.294,-1.31L60.294,2.167ZM73.513,6.389L68.741,6.389L68.741,-2.171L73.513,-2.171L73.513,-1.287L69.737,-1.287L69.737,1.471L73.285,1.471L73.285,2.349L69.737,2.349L69.737,5.499L73.513,5.499L73.513,6.389ZM78.629,2.829L78.629,6.389L77.634,6.389L77.634,-2.171L79.982,-2.171C81.032,-2.171 81.807,-1.97 82.306,-1.568C82.81,-1.166 83.061,-0.561 83.061,0.247C83.061,1.379 82.488,2.144 81.34,2.542L83.665,6.389L82.488,6.389L80.415,2.829L78.629,2.829ZM78.629,1.974L79.994,1.974C80.696,1.974 81.211,1.836 81.539,1.558C81.867,1.277 82.031,0.858 82.031,0.3C82.031,-0.266 81.863,-0.674 81.528,-0.924C81.196,-1.174 80.661,-1.299 79.923,-1.299L78.629,-1.299L78.629,1.974Z" style="fill:rgb(189,189,189);fill-rule:nonzero;"/>
    </g>
    <g transform="matrix(5.55556,0,0,5.55556,689.685,276.02)">
        <path d="M3.811,6.389L2.816,6.389L2.816,-1.287L0.105,-1.287L0.105,-2.171L6.522,-2.171L6.522,-1.287L3.811,-1.287L3.811,6.389ZM17.464,2.097C17.464,3.467 17.117,4.544 16.422,5.329C15.731,6.113 14.769,6.506 13.535,6.506C12.275,6.506 11.301,6.121 10.614,5.352C9.931,4.579 9.589,3.491 9.589,2.085C9.589,0.692 9.933,-0.387 10.62,-1.152C11.307,-1.921 12.283,-2.306 13.547,-2.306C14.777,-2.306 15.737,-1.915 16.428,-1.135C17.119,-0.354 17.464,0.723 17.464,2.097ZM10.643,2.097C10.643,3.256 10.889,4.136 11.381,4.738C11.877,5.335 12.595,5.633 13.535,5.633C14.484,5.633 15.2,5.335 15.684,4.738C16.168,4.14 16.41,3.26 16.41,2.097C16.41,0.946 16.168,0.073 15.684,-0.52C15.204,-1.117 14.492,-1.416 13.547,-1.416C12.599,-1.416 11.877,-1.115 11.381,-0.514C10.889,0.083 10.643,0.953 10.643,2.097ZM28.06,-2.171L28.06,3.368C28.06,4.343 27.766,5.11 27.176,5.668C26.587,6.227 25.777,6.506 24.747,6.506C23.716,6.506 22.918,6.225 22.352,5.663C21.79,5.101 21.509,4.328 21.509,3.344L21.509,-2.171L22.504,-2.171L22.504,3.414C22.504,4.129 22.699,4.677 23.09,5.06C23.48,5.442 24.054,5.633 24.811,5.633C25.533,5.633 26.089,5.442 26.48,5.06C26.87,4.673 27.065,4.121 27.065,3.403L27.065,-2.171L28.06,-2.171ZM33.546,2.829L33.546,6.389L32.55,6.389L32.55,-2.171L34.898,-2.171C35.948,-2.171 36.723,-1.97 37.222,-1.568C37.726,-1.166 37.978,-0.561 37.978,0.247C37.978,1.379 37.404,2.144 36.256,2.542L38.581,6.389L37.404,6.389L35.331,2.829L33.546,2.829ZM33.546,1.974L34.91,1.974C35.612,1.974 36.128,1.836 36.455,1.558C36.783,1.277 36.947,0.858 36.947,0.3C36.947,-0.266 36.779,-0.674 36.444,-0.924C36.112,-1.174 35.577,-1.299 34.839,-1.299L33.546,-1.299L33.546,1.974ZM54.943,2.097C54.943,3.467 54.596,4.544 53.901,5.329C53.21,6.113 52.248,6.506 51.015,6.506C49.754,6.506 48.78,6.121 48.093,5.352C47.41,4.579 47.069,3.491 47.069,2.085C47.069,0.692 47.412,-0.387 48.099,-1.152C48.786,-1.921 49.762,-2.306 51.026,-2.306C52.256,-2.306 53.216,-1.915 53.907,-1.135C54.598,-0.354 54.943,0.723 54.943,2.097ZM48.122,2.097C48.122,3.256 48.368,4.136 48.86,4.738C49.356,5.335 50.074,5.633 51.015,5.633C51.963,5.633 52.679,5.335 53.163,4.738C53.647,4.14 53.889,3.26 53.889,2.097C53.889,0.946 53.647,0.073 53.163,-0.52C52.683,-1.117 51.971,-1.416 51.026,-1.416C50.078,-1.416 49.356,-1.115 48.86,-0.514C48.368,0.083 48.122,0.953 48.122,2.097ZM64.503,0.323C64.503,1.19 64.207,1.857 63.613,2.325C63.024,2.79 62.179,3.022 61.078,3.022L60.071,3.022L60.071,6.389L59.076,6.389L59.076,-2.171L61.295,-2.171C63.434,-2.171 64.503,-1.34 64.503,0.323ZM60.071,2.167L60.967,2.167C61.849,2.167 62.487,2.025 62.882,1.74C63.276,1.455 63.473,0.998 63.473,0.37C63.473,-0.196 63.288,-0.618 62.917,-0.895C62.546,-1.172 61.968,-1.31 61.184,-1.31L60.071,-1.31L60.071,2.167ZM73.291,6.389L68.519,6.389L68.519,-2.171L73.291,-2.171L73.291,-1.287L69.514,-1.287L69.514,1.471L73.062,1.471L73.062,2.349L69.514,2.349L69.514,5.499L73.291,5.499L73.291,6.389ZM78.407,2.829L78.407,6.389L77.412,6.389L77.412,-2.171L79.759,-2.171C80.809,-2.171 81.584,-1.97 82.084,-1.568C82.587,-1.166 82.839,-0.561 82.839,0.247C82.839,1.379 82.265,2.144 81.118,2.542L83.442,6.389L82.265,6.389L80.193,2.829L78.407,2.829ZM78.407,1.974L79.771,1.974C80.474,1.974 80.989,1.836 81.317,1.558C81.645,1.277 81.809,0.858 81.809,0.3C81.809,-0.266 81.641,-0.674 81.305,-0.924C80.973,-1.174 80.439,-1.299 79.701,-1.299L78.407,-1.299L78.407,1.974ZM92.423,6.389L91.357,3.666L87.926,3.666L86.872,6.389L85.865,6.389L89.249,-2.206L90.086,-2.206L93.453,6.389L92.423,6.389ZM91.047,2.77L90.051,0.118C89.923,-0.218 89.79,-0.629 89.653,-1.117C89.567,-0.742 89.444,-0.331 89.284,0.118L88.277,2.77L91.047,2.77ZM99.483,6.389L98.487,6.389L98.487,-1.287L95.777,-1.287L95.777,-2.171L102.193,-2.171L102.193,-1.287L99.483,-1.287L99.483,6.389ZM113.135,2.097C113.135,3.467 112.788,4.544 112.093,5.329C111.402,6.113 110.44,6.506 109.207,6.506C107.946,6.506 106.972,6.121 106.285,5.352C105.602,4.579 105.261,3.491 105.261,2.085C105.261,0.692 105.604,-0.387 106.291,-1.152C106.978,-1.921 107.954,-2.306 109.218,-2.306C110.448,-2.306 111.408,-1.915 112.099,-1.135C112.79,-0.354 113.135,0.723 113.135,2.097ZM106.314,2.097C106.314,3.256 106.56,4.136 107.052,4.738C107.548,5.335 108.266,5.633 109.207,5.633C110.155,5.633 110.871,5.335 111.355,4.738C111.839,4.14 112.081,3.26 112.081,2.097C112.081,0.946 111.839,0.073 111.355,-0.52C110.875,-1.117 110.163,-1.416 109.218,-1.416C108.27,-1.416 107.548,-1.115 107.052,-0.514C106.56,0.083 106.314,0.953 106.314,2.097ZM118.263,2.829L118.263,6.389L117.268,6.389L117.268,-2.171L119.616,-2.171C120.666,-2.171 121.44,-1.97 121.94,-1.568C122.444,-1.166 122.695,-0.561 122.695,0.247C122.695,1.379 122.122,2.144 120.974,2.542L123.298,6.389L122.122,6.389L120.049,2.829L118.263,2.829ZM118.263,1.974L119.627,1.974C120.33,1.974 120.845,1.836 121.173,1.558C121.501,1.277 121.665,0.858 121.665,0.3C121.665,-0.266 121.497,-0.674 121.161,-0.924C120.83,-1.174 120.295,-1.299 119.557,-1.299L118.263,-1.299L118.263,1.974Z" style="fill:rgb(189,189,189);fill-rule:nonzero;"/>
    </g>
    <g transform="matrix(5.55556,0,0,5.55556,1593.14,276.02)">
        <path d="M1.177,6.389L1.177,-2.171L2.172,-2.171L2.172,6.389L1.177,6.389ZM13.43,6.389L12.294,6.389L7.616,-0.795L7.569,-0.795C7.632,0.048 7.663,0.821 7.663,1.523L7.663,6.389L6.744,6.389L6.744,-2.171L7.868,-2.171L12.534,4.983L12.581,4.983C12.573,4.878 12.556,4.54 12.528,3.971C12.501,3.397 12.491,2.987 12.499,2.741L12.499,-2.171L13.43,-2.171L13.43,6.389ZM22.891,-2.171L23.962,-2.171L20.877,6.389L19.893,6.389L16.825,-2.171L17.879,-2.171L19.846,3.368C20.073,4.004 20.252,4.622 20.385,5.224C20.525,4.591 20.709,3.961 20.935,3.332L22.891,-2.171ZM32.135,6.389L27.363,6.389L27.363,-2.171L32.135,-2.171L32.135,-1.287L28.358,-1.287L28.358,1.471L31.906,1.471L31.906,2.349L28.358,2.349L28.358,5.499L32.135,5.499L32.135,6.389ZM41.086,4.111C41.086,4.864 40.813,5.452 40.266,5.873C39.72,6.295 38.978,6.506 38.041,6.506C37.026,6.506 36.246,6.375 35.699,6.113L35.699,5.153C36.051,5.302 36.433,5.419 36.847,5.505C37.261,5.59 37.671,5.633 38.076,5.633C38.74,5.633 39.24,5.508 39.575,5.259C39.911,5.005 40.079,4.654 40.079,4.205C40.079,3.908 40.018,3.666 39.897,3.479C39.78,3.288 39.581,3.112 39.3,2.952C39.023,2.792 38.599,2.61 38.03,2.407C37.233,2.122 36.664,1.785 36.32,1.395C35.98,1.004 35.811,0.495 35.811,-0.134C35.811,-0.793 36.059,-1.318 36.554,-1.709C37.05,-2.099 37.706,-2.294 38.521,-2.294C39.372,-2.294 40.155,-2.138 40.869,-1.826L40.559,-0.959C39.852,-1.256 39.165,-1.404 38.498,-1.404C37.971,-1.404 37.559,-1.291 37.263,-1.064C36.966,-0.838 36.818,-0.524 36.818,-0.122C36.818,0.175 36.872,0.419 36.982,0.61C37.091,0.797 37.274,0.971 37.532,1.131C37.793,1.287 38.192,1.461 38.726,1.652C39.624,1.972 40.241,2.316 40.576,2.683C40.916,3.049 41.086,3.526 41.086,4.111ZM47.689,6.389L46.694,6.389L46.694,-1.287L43.983,-1.287L43.983,-2.171L50.4,-2.171L50.4,-1.287L47.689,-1.287L47.689,6.389ZM57.7,6.389L54.796,-1.199L54.749,-1.199C54.804,-0.598 54.831,0.116 54.831,0.944L54.831,6.389L53.912,6.389L53.912,-2.171L55.411,-2.171L58.122,4.89L58.169,4.89L60.903,-2.171L62.39,-2.171L62.39,6.389L61.394,6.389L61.394,0.873C61.394,0.241 61.422,-0.446 61.476,-1.187L61.43,-1.187L58.502,6.389L57.7,6.389ZM71.733,6.389L66.962,6.389L66.962,-2.171L71.733,-2.171L71.733,-1.287L67.957,-1.287L67.957,1.471L71.505,1.471L71.505,2.349L67.957,2.349L67.957,5.499L71.733,5.499L71.733,6.389ZM82.54,6.389L81.405,6.389L76.727,-0.795L76.68,-0.795C76.742,0.048 76.773,0.821 76.773,1.523L76.773,6.389L75.854,6.389L75.854,-2.171L76.978,-2.171L81.645,4.983L81.691,4.983C81.684,4.878 81.666,4.54 81.639,3.971C81.611,3.397 81.602,2.987 81.61,2.741L81.61,-2.171L82.54,-2.171L82.54,6.389ZM89.747,6.389L88.752,6.389L88.752,-1.287L86.041,-1.287L86.041,-2.171L92.458,-2.171L92.458,-1.287L89.747,-1.287L89.747,6.389ZM106.133,4.111C106.133,4.864 105.86,5.452 105.313,5.873C104.767,6.295 104.025,6.506 103.088,6.506C102.074,6.506 101.293,6.375 100.747,6.113L100.747,5.153C101.098,5.302 101.48,5.419 101.894,5.505C102.308,5.59 102.718,5.633 103.124,5.633C103.787,5.633 104.287,5.508 104.622,5.259C104.958,5.005 105.126,4.654 105.126,4.205C105.126,3.908 105.065,3.666 104.944,3.479C104.827,3.288 104.628,3.112 104.347,2.952C104.07,2.792 103.647,2.61 103.077,2.407C102.281,2.122 101.711,1.785 101.367,1.395C101.028,1.004 100.858,0.495 100.858,-0.134C100.858,-0.793 101.106,-1.318 101.601,-1.709C102.097,-2.099 102.753,-2.294 103.569,-2.294C104.419,-2.294 105.202,-2.138 105.916,-1.826L105.606,-0.959C104.9,-1.256 104.213,-1.404 103.545,-1.404C103.018,-1.404 102.606,-1.291 102.31,-1.064C102.013,-0.838 101.865,-0.524 101.865,-0.122C101.865,0.175 101.919,0.419 102.029,0.61C102.138,0.797 102.321,0.971 102.579,1.131C102.841,1.287 103.239,1.461 103.773,1.652C104.671,1.972 105.288,2.316 105.624,2.683C105.963,3.049 106.133,3.526 106.133,4.111ZM116.565,-2.171L116.565,3.368C116.565,4.343 116.271,5.11 115.681,5.668C115.092,6.227 114.282,6.506 113.252,6.506C112.221,6.506 111.423,6.225 110.857,5.663C110.295,5.101 110.014,4.328 110.014,3.344L110.014,-2.171L111.009,-2.171L111.009,3.414C111.009,4.129 111.204,4.677 111.595,5.06C111.985,5.442 112.559,5.633 113.316,5.633C114.038,5.633 114.594,5.442 114.985,5.06C115.375,4.673 115.57,4.121 115.57,3.403L115.57,-2.171L116.565,-2.171ZM126.483,0.323C126.483,1.19 126.186,1.857 125.593,2.325C125.003,2.79 124.158,3.022 123.058,3.022L122.051,3.022L122.051,6.389L121.055,6.389L121.055,-2.171L123.274,-2.171C125.413,-2.171 126.483,-1.34 126.483,0.323ZM122.051,2.167L122.946,2.167C123.828,2.167 124.467,2.025 124.861,1.74C125.255,1.455 125.452,0.998 125.452,0.37C125.452,-0.196 125.267,-0.618 124.896,-0.895C124.525,-1.172 123.948,-1.31 123.163,-1.31L122.051,-1.31L122.051,2.167ZM135.926,0.323C135.926,1.19 135.629,1.857 135.036,2.325C134.446,2.79 133.601,3.022 132.501,3.022L131.494,3.022L131.494,6.389L130.498,6.389L130.498,-2.171L132.717,-2.171C134.856,-2.171 135.926,-1.34 135.926,0.323ZM131.494,2.167L132.389,2.167C133.271,2.167 133.91,2.025 134.304,1.74C134.698,1.455 134.895,0.998 134.895,0.37C134.895,-0.196 134.71,-0.618 134.339,-0.895C133.968,-1.172 133.391,-1.31 132.606,-1.31L131.494,-1.31L131.494,2.167ZM147.371,2.097C147.371,3.467 147.024,4.544 146.329,5.329C145.638,6.113 144.676,6.506 143.442,6.506C142.182,6.506 141.208,6.121 140.521,5.352C139.838,4.579 139.496,3.491 139.496,2.085C139.496,0.692 139.84,-0.387 140.527,-1.152C141.214,-1.921 142.189,-2.306 143.454,-2.306C144.684,-2.306 145.644,-1.915 146.335,-1.135C147.026,-0.354 147.371,0.723 147.371,2.097ZM140.55,2.097C140.55,3.256 140.796,4.136 141.288,4.738C141.784,5.335 142.502,5.633 143.442,5.633C144.391,5.633 145.107,5.335 145.591,4.738C146.075,4.14 146.317,3.26 146.317,2.097C146.317,0.946 146.075,0.073 145.591,-0.52C145.111,-1.117 144.399,-1.416 143.454,-1.416C142.506,-1.416 141.784,-1.115 141.288,-0.514C140.796,0.083 140.55,0.953 140.55,2.097ZM152.499,2.829L152.499,6.389L151.504,6.389L151.504,-2.171L153.851,-2.171C154.901,-2.171 155.676,-1.97 156.176,-1.568C156.679,-1.166 156.931,-0.561 156.931,0.247C156.931,1.379 156.357,2.144 155.21,2.542L157.534,6.389L156.357,6.389L154.285,2.829L152.499,2.829ZM152.499,1.974L153.863,1.974C154.566,1.974 155.081,1.836 155.409,1.558C155.737,1.277 155.901,0.858 155.901,0.3C155.901,-0.266 155.733,-0.674 155.397,-0.924C155.065,-1.174 154.531,-1.299 153.793,-1.299L152.499,-1.299L152.499,1.974ZM163.769,6.389L162.773,6.389L162.773,-1.287L160.063,-1.287L160.063,-2.171L166.479,-2.171L166.479,-1.287L163.769,-1.287L163.769,6.389Z" style="fill:rgb(189,189,189);fill-rule:nonzero;"/>
    </g>
    <g transform="matrix(5.55556,0,0,5.55556,510.665,292.035)">
        <rect x="0" y="0.375" width="22.482" height="0.375" style="fill:rgb(196,196,196);"/>
    </g>
    <g transform="matrix(5.55556,0,0,5.55556,1422.44,292.035)">
        <rect x="0" y="0.375" width="22.482" height="0.375" style="fill:rgb(196,196,196);"/>
    </g>
</svg>
