<?xml version="1.0" encoding="UTF-8" standalone="no"?>
<!DOCTYPE svg PUBLIC "-//W3C//DTD SVG 1.1//EN" "http://www.w3.org/Graphics/SVG/1.1/DTD/svg11.dtd">
<svg width="100%" height="100%" viewBox="0 0 152 152" version="1.1" xmlns="http://www.w3.org/2000/svg" xmlns:xlink="http://www.w3.org/1999/xlink" xml:space="preserve" xmlns:serif="http://www.serif.com/" style="fill-rule:evenodd;clip-rule:evenodd;stroke-linejoin:round;stroke-miterlimit:2;">
    <g transform="matrix(5.55556,0,0,5.55556,0,0.00015)">
        <path d="M0,13.648C0,6.111 6.111,-0 13.648,-0C21.186,-0 27.297,6.111 27.297,13.648C27.297,21.186 21.186,27.297 13.648,27.297C6.111,27.297 0,21.186 0,13.648ZM15.071,21.673L15.071,14.248L17.121,14.248L17.392,11.689L15.071,11.689L15.074,10.408C15.074,9.741 15.138,9.383 16.096,9.383L17.378,9.383L17.378,6.824L15.328,6.824C12.865,6.824 11.999,8.065 11.999,10.153L11.999,11.689L10.464,11.689L10.464,14.248L11.999,14.248L11.999,21.673L15.071,21.673Z" style="fill:rgb(175,155,120);"/>
    </g>
</svg>
