<?xml version="1.0" encoding="UTF-8" standalone="no"?>
<!DOCTYPE svg PUBLIC "-//W3C//DTD SVG 1.1//EN" "http://www.w3.org/Graphics/SVG/1.1/DTD/svg11.dtd">
<svg width="100%" height="100%" viewBox="0 0 667 391" version="1.1" xmlns="http://www.w3.org/2000/svg" xmlns:xlink="http://www.w3.org/1999/xlink" xml:space="preserve" xmlns:serif="http://www.serif.com/" style="fill-rule:evenodd;clip-rule:evenodd;stroke-linejoin:round;stroke-miterlimit:2;">
    <g transform="matrix(5.55556,0,0,5.55556,0,0)">
        <path d="M74.508,0L95.634,32.439L118.144,0L120,0L71.173,70.336L69.315,70.336L88.156,43.207L67.932,12.122L45.399,44.565L24.273,12.122L1.858,44.447L0,44.447L30.845,0L51.975,32.439L74.508,0Z" style="fill:white;fill-rule:nonzero;"/>
    </g>
    <g transform="matrix(5.55556,0,0,5.55556,0.0759556,271.334)">
        <path d="M6.35,8.858L5.114,8.858L3.632,6.375C3.496,6.145 3.364,5.948 3.237,5.785C3.109,5.622 2.978,5.49 2.845,5.387C2.711,5.284 2.566,5.209 2.412,5.161C2.258,5.114 2.084,5.09 1.89,5.09L1.038,5.09L1.038,8.858L0,8.858L0,0L2.644,0C3.031,0 3.388,0.049 3.715,0.145C4.043,0.242 4.327,0.389 4.568,0.587C4.809,0.784 4.997,1.031 5.133,1.325C5.269,1.619 5.337,1.964 5.337,2.36C5.337,2.669 5.29,2.952 5.198,3.209C5.105,3.467 4.973,3.696 4.802,3.898C4.631,4.1 4.426,4.272 4.185,4.413C3.944,4.556 3.673,4.666 3.372,4.744L3.372,4.769C3.521,4.835 3.649,4.91 3.758,4.994C3.868,5.079 3.972,5.179 4.07,5.294C4.169,5.409 4.267,5.54 4.364,5.686C4.461,5.832 4.569,6.002 4.688,6.196L6.35,8.858ZM1.037,0.939L1.037,4.151L2.446,4.151C2.705,4.151 2.945,4.112 3.165,4.034C3.386,3.956 3.576,3.843 3.737,3.697C3.897,3.551 4.023,3.372 4.113,3.16C4.204,2.948 4.249,2.71 4.249,2.446C4.249,1.973 4.096,1.603 3.789,1.337C3.482,1.072 3.038,0.939 2.458,0.939L1.037,0.939Z" style="fill:white;fill-rule:nonzero;"/>
    </g>
    <g transform="matrix(5.55556,0,0,5.55556,65.2344,271.345)">
        <path d="M4.695,8.858L0,8.858L0,-0L4.497,-0L4.497,0.939L1.038,0.939L1.038,3.886L4.238,3.886L4.238,4.818L1.038,4.818L1.038,7.919L4.695,7.919L4.695,8.858Z" style="fill:white;fill-rule:nonzero;"/>
    </g>
    <g transform="matrix(5.55556,0,0,5.55556,121.691,270.519)">
        <path d="M0,8.648L0,7.425C0.14,7.549 0.308,7.66 0.503,7.759C0.699,7.858 0.905,7.941 1.121,8.009C1.337,8.077 1.554,8.129 1.773,8.166C1.991,8.203 2.193,8.222 2.378,8.222C3.016,8.222 3.493,8.103 3.808,7.867C4.123,7.63 4.281,7.289 4.281,6.844C4.281,6.606 4.228,6.397 4.123,6.22C4.018,6.043 3.873,5.882 3.687,5.736C3.502,5.589 3.283,5.449 3.03,5.316C2.776,5.182 2.504,5.041 2.211,4.892C1.902,4.736 1.614,4.578 1.346,4.417C1.079,4.256 0.846,4.079 0.648,3.886C0.451,3.692 0.295,3.473 0.182,3.228C0.068,2.983 0.012,2.695 0.012,2.366C0.012,1.962 0.101,1.611 0.278,1.312C0.455,1.014 0.687,0.768 0.976,0.574C1.264,0.381 1.592,0.237 1.961,0.142C2.329,0.047 2.705,0 3.088,0C3.961,0 4.597,0.105 4.997,0.315L4.997,1.482C4.474,1.12 3.803,0.939 2.983,0.939C2.757,0.939 2.53,0.963 2.304,1.01C2.077,1.057 1.875,1.134 1.698,1.241C1.521,1.349 1.377,1.487 1.266,1.655C1.155,1.824 1.099,2.03 1.099,2.273C1.099,2.499 1.141,2.695 1.226,2.86C1.31,3.025 1.435,3.175 1.6,3.311C1.764,3.447 1.965,3.579 2.202,3.706C2.439,3.834 2.712,3.974 3.02,4.126C3.338,4.283 3.638,4.447 3.922,4.62C4.206,4.793 4.456,4.985 4.67,5.195C4.884,5.405 5.054,5.638 5.179,5.893C5.305,6.148 5.368,6.441 5.368,6.77C5.368,7.207 5.282,7.576 5.111,7.879C4.94,8.182 4.71,8.428 4.419,8.617C4.129,8.806 3.794,8.943 3.416,9.028C3.037,9.112 2.637,9.154 2.217,9.154C2.077,9.154 1.904,9.143 1.698,9.12C1.492,9.098 1.282,9.065 1.068,9.022C0.854,8.978 0.651,8.925 0.46,8.861C0.269,8.798 0.115,8.726 0,8.648Z" style="fill:white;fill-rule:nonzero;"/>
    </g>
    <g transform="matrix(5.55556,0,0,5.55556,181.217,270.52)">
        <path d="M4.151,9.155C2.895,9.155 1.889,8.741 1.133,7.913C0.378,7.085 0,6.008 0,4.682C0,3.258 0.385,2.121 1.155,1.272C1.925,0.424 2.973,0 4.299,0C5.523,0 6.508,0.412 7.255,1.235C8.003,2.059 8.377,3.136 8.377,4.466C8.377,5.912 7.994,7.054 7.228,7.895C6.462,8.735 5.436,9.155 4.151,9.155ZM4.225,0.939C3.295,0.939 2.539,1.275 1.958,1.946C1.378,2.617 1.087,3.498 1.087,4.589C1.087,5.681 1.37,6.559 1.937,7.224C2.503,7.889 3.241,8.221 4.151,8.221C5.123,8.221 5.889,7.904 6.449,7.27C7.009,6.636 7.289,5.749 7.289,4.608C7.289,3.438 7.018,2.534 6.474,1.896C5.93,1.258 5.181,0.939 4.225,0.939Z" style="fill:white;fill-rule:nonzero;"/>
    </g>
    <g transform="matrix(5.55556,0,0,5.55556,260.612,271.334)">
        <path d="M6.35,8.858L5.114,8.858L3.632,6.375C3.496,6.145 3.364,5.948 3.237,5.785C3.109,5.622 2.978,5.49 2.845,5.387C2.711,5.284 2.566,5.209 2.412,5.161C2.258,5.114 2.084,5.09 1.89,5.09L1.038,5.09L1.038,8.858L0,8.858L0,-0L2.644,-0C3.031,-0 3.388,0.049 3.715,0.145C4.043,0.242 4.327,0.389 4.568,0.587C4.809,0.784 4.997,1.031 5.133,1.325C5.269,1.619 5.337,1.964 5.337,2.36C5.337,2.669 5.29,2.952 5.198,3.209C5.105,3.467 4.973,3.696 4.802,3.898C4.631,4.1 4.426,4.272 4.185,4.413C3.944,4.556 3.673,4.666 3.372,4.744L3.372,4.769C3.521,4.835 3.649,4.91 3.758,4.994C3.868,5.079 3.972,5.179 4.07,5.294C4.169,5.409 4.267,5.54 4.364,5.686C4.461,5.832 4.569,6.002 4.688,6.196L6.35,8.858ZM1.037,0.939L1.037,4.151L2.446,4.151C2.705,4.151 2.945,4.112 3.165,4.034C3.386,3.956 3.576,3.843 3.737,3.697C3.897,3.551 4.023,3.372 4.113,3.16C4.204,2.948 4.249,2.71 4.249,2.446C4.249,1.973 4.096,1.603 3.789,1.337C3.482,1.072 3.038,0.939 2.458,0.939L1.037,0.939Z" style="fill:white;fill-rule:nonzero;"/>
    </g>
    <g transform="matrix(5.55556,0,0,5.55556,320.736,271.334)">
        <path d="M6.146,0.939L3.589,0.939L3.589,8.858L2.551,8.858L2.551,0.939L0,0.939L0,0L6.146,0L6.146,0.939Z" style="fill:white;fill-rule:nonzero;"/>
    </g>
    <g transform="matrix(5.55556,0,0,5.55556,383.496,270.52)">
        <path d="M0,8.648L0,7.425C0.14,7.549 0.308,7.66 0.504,7.759C0.699,7.858 0.905,7.941 1.121,8.009C1.338,8.077 1.555,8.129 1.773,8.166C1.991,8.204 2.193,8.222 2.378,8.222C3.017,8.222 3.493,8.103 3.808,7.867C4.123,7.63 4.281,7.289 4.281,6.844C4.281,6.606 4.228,6.397 4.123,6.22C4.018,6.043 3.873,5.882 3.688,5.736C3.503,5.589 3.283,5.449 3.03,5.316C2.777,5.182 2.504,5.041 2.211,4.892C1.903,4.736 1.614,4.578 1.347,4.417C1.079,4.256 0.846,4.079 0.649,3.886C0.451,3.692 0.295,3.473 0.182,3.228C0.069,2.983 0.012,2.695 0.012,2.366C0.012,1.962 0.101,1.611 0.278,1.312C0.455,1.014 0.687,0.768 0.976,0.574C1.264,0.381 1.592,0.237 1.961,0.142C2.33,0.047 2.706,-0 3.089,-0C3.962,-0 4.598,0.105 4.997,0.315L4.997,1.482C4.474,1.12 3.803,0.939 2.984,0.939C2.757,0.939 2.531,0.963 2.304,1.01C2.078,1.057 1.876,1.134 1.699,1.241C1.522,1.349 1.378,1.487 1.267,1.655C1.155,1.824 1.1,2.03 1.1,2.273C1.1,2.499 1.142,2.695 1.226,2.86C1.311,3.025 1.435,3.175 1.6,3.311C1.765,3.447 1.965,3.579 2.202,3.706C2.439,3.834 2.712,3.974 3.021,4.126C3.338,4.283 3.638,4.447 3.923,4.62C4.207,4.793 4.456,4.985 4.67,5.195C4.884,5.405 5.054,5.638 5.179,5.893C5.305,6.148 5.368,6.441 5.368,6.77C5.368,7.207 5.282,7.576 5.111,7.879C4.94,8.182 4.71,8.428 4.42,8.617C4.129,8.806 3.795,8.943 3.416,9.028C3.037,9.112 2.637,9.154 2.217,9.154C2.077,9.154 1.904,9.143 1.698,9.12C1.492,9.098 1.282,9.065 1.068,9.022C0.854,8.978 0.651,8.925 0.46,8.861C0.269,8.798 0.115,8.726 0,8.648Z" style="fill:white;fill-rule:nonzero;"/>
    </g>
</svg>
