<svg width="29" height="29" viewBox="0 0 29 29" fill="none" xmlns="http://www.w3.org/2000/svg">
<path fill-rule="evenodd" clip-rule="evenodd" d="M0 14.2503C0 6.47581 6.30247 0.17334 14.077 0.17334C21.8514 0.17334 28.1539 6.47581 28.1539 14.2503C28.1539 22.0248 21.8514 28.3272 14.077 28.3272C6.30247 28.3272 0 22.0248 0 14.2503ZM19.5734 21.5355C20.8919 21.5355 21.9422 20.6867 22.5231 18.6531L21.5401 18.2736C21.0484 19.636 20.6237 19.8825 20.2887 19.8825C19.9534 19.8825 19.7744 19.6592 19.7744 19.2125C19.7744 19.0114 19.8194 18.7884 19.8862 18.5197L20.6015 15.9513C20.7802 15.3481 20.8472 14.8141 20.8472 14.3227C20.8472 12.401 19.6851 11.4002 18.2773 11.4002C16.959 11.4002 15.6181 12.5937 14.9479 13.8453L15.4393 11.6076H11.6181L11.0818 13.592H12.8695L11.7687 17.9891C10.9041 19.9109 9.31608 19.9316 9.11684 19.887C8.7896 19.8132 8.58034 19.691 8.58034 19.2659C8.58034 19.0205 8.62499 18.6724 8.73674 18.2475L10.4129 11.6076H6.1671L5.63078 13.592H7.39604L6.25639 18.2336C6.1671 18.6135 6.12227 19.0098 6.12227 19.3444C6.12227 20.6631 6.83736 21.5334 8.35692 21.5334C9.61735 21.5334 10.639 20.7749 11.3746 19.5664L10.9254 21.349H13.4281L14.8584 15.6325C15.2158 14.1799 15.9086 13.4463 16.959 13.4463C17.7858 13.4463 18.2998 13.9605 18.2998 14.8094C18.2998 15.0553 18.2773 15.3232 18.188 15.6138L17.4505 18.2507C17.3387 18.6306 17.2943 19.0108 17.2943 19.368C17.2943 20.6198 18.0315 21.5355 19.5734 21.5355ZM9.40718 7.21182C8.58034 7.21182 7.88771 7.8598 7.88771 8.70865C7.88771 9.55813 8.58034 10.2062 9.40718 10.2062C10.2341 10.2062 10.9267 9.55813 10.9267 8.70865C10.9267 7.8598 10.2341 7.21182 9.40718 7.21182Z" fill="#AF9B78"/>
</svg>
